<svg xmlns="http://www.w3.org/2000/svg" width="26.634" height="26.609" viewBox="0 0 26.634 26.609"><defs><style>.a,.b{fill:none;stroke:#44bba4;stroke-linecap:round;stroke-linejoin:bevel;stroke-width:1.5px;}.a{fill-rule:evenodd;}</style></defs><g transform="translate(0.751 0.751)"><path class="a" d="M12.551,3.746l.113-.275a2.5,2.5,0,0,1,4.662.2l.087.287a2.5,2.5,0,0,0,3.35,1.55l.262-.113a2.5,2.5,0,0,1,3.162,3.437l-.137.263a2.5,2.5,0,0,0,1.25,3.45l.275.113a2.5,2.5,0,0,1-.2,4.662l-.288.087a2.5,2.5,0,0,0-1.575,3.35l.113.262a2.5,2.5,0,0,1-3.437,3.163l-.262-.138a2.5,2.5,0,0,0-3.45,1.25l-.112.275a2.5,2.5,0,0,1-4.663-.2l-.087-.288a2.5,2.5,0,0,0-3.35-1.575L8,23.621a2.5,2.5,0,0,1-3.162-3.437l.138-.262a2.5,2.5,0,0,0-1.25-3.45l-.275-.112a2.5,2.5,0,0,1,.2-4.663l.287-.087a2.5,2.5,0,0,0,1.575-3.35L5.4,8A2.5,2.5,0,0,1,8.838,4.858L9.1,5a2.5,2.5,0,0,0,3.45-1.25Z" transform="translate(-1.947 -1.967)"/><circle class="b" cx="4.888" cy="4.888" r="4.888" transform="translate(7.678 7.653)"/></g></svg>